<mxfile host="Electron" agent="Mozilla/5.0 (Windows NT 10.0; Win64; x64) AppleWebKit/537.36 (KHTML, like Gecko) draw.io/25.0.2 Chrome/128.0.6613.186 Electron/32.2.5 Safari/537.36" version="25.0.2">
  <diagram name="Seite-1" id="oY8rlO3MIUvSKWveM_xQ">
    <mxGraphModel dx="3457" dy="2007" grid="1" gridSize="10" guides="1" tooltips="1" connect="1" arrows="1" fold="1" page="1" pageScale="1" pageWidth="827" pageHeight="1169" math="0" shadow="0">
      <root>
        <mxCell id="0" />
        <mxCell id="1" parent="0" />
        <mxCell id="XkdaNtyK5-QFKf3fs0a6-104" value="" style="rounded=0;whiteSpace=wrap;html=1;movable=1;resizable=1;rotatable=1;deletable=1;editable=1;locked=0;connectable=1;" vertex="1" parent="1">
          <mxGeometry x="20" y="64" width="1830" height="1040" as="geometry" />
        </mxCell>
        <mxCell id="XkdaNtyK5-QFKf3fs0a6-1" value="" style="rounded=0;whiteSpace=wrap;html=1;fillColor=#f8cecc;strokeColor=#b85450;" vertex="1" parent="1">
          <mxGeometry x="80" y="160" width="480" height="360" as="geometry" />
        </mxCell>
        <mxCell id="XkdaNtyK5-QFKf3fs0a6-2" value="Fach auswählen" style="rounded=0;whiteSpace=wrap;html=1;fillColor=#e1d5e7;strokeColor=#9673a6;" vertex="1" parent="1">
          <mxGeometry x="260" y="270" width="120" height="60" as="geometry" />
        </mxCell>
        <mxCell id="XkdaNtyK5-QFKf3fs0a6-59" style="edgeStyle=orthogonalEdgeStyle;rounded=0;orthogonalLoop=1;jettySize=auto;html=1;entryX=0.5;entryY=0;entryDx=0;entryDy=0;" edge="1" parent="1" source="XkdaNtyK5-QFKf3fs0a6-3" target="XkdaNtyK5-QFKf3fs0a6-12">
          <mxGeometry relative="1" as="geometry" />
        </mxCell>
        <mxCell id="XkdaNtyK5-QFKf3fs0a6-3" value="Fragen hinzufügen / bearbeiten" style="rounded=0;whiteSpace=wrap;html=1;fillColor=#fff2cc;strokeColor=#d6b656;" vertex="1" parent="1">
          <mxGeometry x="260" y="350" width="120" height="60" as="geometry" />
        </mxCell>
        <mxCell id="XkdaNtyK5-QFKf3fs0a6-4" value="" style="rounded=0;whiteSpace=wrap;html=1;movable=1;resizable=1;rotatable=1;deletable=1;editable=1;locked=0;connectable=1;fillColor=#dae8fc;strokeColor=#6c8ebf;" vertex="1" parent="1">
          <mxGeometry x="1320" y="160" width="480" height="360" as="geometry" />
        </mxCell>
        <mxCell id="XkdaNtyK5-QFKf3fs0a6-5" value="Frage 2" style="rounded=0;whiteSpace=wrap;html=1;fillColor=#d5e8d4;strokeColor=#82b366;" vertex="1" parent="1">
          <mxGeometry x="1500" y="270" width="120" height="60" as="geometry" />
        </mxCell>
        <mxCell id="XkdaNtyK5-QFKf3fs0a6-6" value="Antwort 2" style="rounded=0;whiteSpace=wrap;html=1;fillColor=#d5e8d4;strokeColor=#82b366;" vertex="1" parent="1">
          <mxGeometry x="1500" y="330" width="120" height="60" as="geometry" />
        </mxCell>
        <mxCell id="XkdaNtyK5-QFKf3fs0a6-37" style="edgeStyle=orthogonalEdgeStyle;rounded=0;orthogonalLoop=1;jettySize=auto;html=1;" edge="1" parent="1" source="XkdaNtyK5-QFKf3fs0a6-7">
          <mxGeometry relative="1" as="geometry">
            <mxPoint x="1560" y="390" as="targetPoint" />
          </mxGeometry>
        </mxCell>
        <mxCell id="XkdaNtyK5-QFKf3fs0a6-7" value="Antwort zeigen / Frage zeigen" style="rounded=0;whiteSpace=wrap;html=1;fillColor=#d5e8d4;strokeColor=#82b366;" vertex="1" parent="1">
          <mxGeometry x="1500" y="450" width="120" height="60" as="geometry" />
        </mxCell>
        <mxCell id="XkdaNtyK5-QFKf3fs0a6-32" style="edgeStyle=orthogonalEdgeStyle;rounded=0;orthogonalLoop=1;jettySize=auto;html=1;entryX=1;entryY=0.5;entryDx=0;entryDy=0;" edge="1" parent="1" source="XkdaNtyK5-QFKf3fs0a6-8" target="XkdaNtyK5-QFKf3fs0a6-27">
          <mxGeometry relative="1" as="geometry">
            <Array as="points">
              <mxPoint x="1655" y="420" />
              <mxPoint x="1480" y="420" />
              <mxPoint x="1480" y="260" />
            </Array>
          </mxGeometry>
        </mxCell>
        <mxCell id="XkdaNtyK5-QFKf3fs0a6-8" value="Nächste" style="rounded=0;whiteSpace=wrap;html=1;fillColor=#fff2cc;strokeColor=#d6b656;" vertex="1" parent="1">
          <mxGeometry x="1620" y="450" width="70" height="60" as="geometry" />
        </mxCell>
        <mxCell id="XkdaNtyK5-QFKf3fs0a6-29" style="edgeStyle=orthogonalEdgeStyle;rounded=0;orthogonalLoop=1;jettySize=auto;html=1;entryX=1;entryY=0.5;entryDx=0;entryDy=0;" edge="1" parent="1" source="XkdaNtyK5-QFKf3fs0a6-9" target="XkdaNtyK5-QFKf3fs0a6-26">
          <mxGeometry relative="1" as="geometry">
            <Array as="points">
              <mxPoint x="1465" y="180" />
            </Array>
          </mxGeometry>
        </mxCell>
        <mxCell id="XkdaNtyK5-QFKf3fs0a6-9" value="Vorherige" style="rounded=0;whiteSpace=wrap;html=1;fillColor=#f8cecc;strokeColor=#b85450;" vertex="1" parent="1">
          <mxGeometry x="1430" y="450" width="70" height="60" as="geometry" />
        </mxCell>
        <mxCell id="XkdaNtyK5-QFKf3fs0a6-10" value="Fragen Übersicht" style="rounded=0;whiteSpace=wrap;html=1;fillColor=#dae8fc;strokeColor=#6c8ebf;" vertex="1" parent="1">
          <mxGeometry x="1320" y="160" width="100" height="360" as="geometry" />
        </mxCell>
        <mxCell id="XkdaNtyK5-QFKf3fs0a6-12" value="" style="rounded=0;whiteSpace=wrap;html=1;fillColor=#fff2cc;strokeColor=#d6b656;" vertex="1" parent="1">
          <mxGeometry x="80" y="680" width="480" height="360" as="geometry" />
        </mxCell>
        <mxCell id="XkdaNtyK5-QFKf3fs0a6-13" value="" style="rounded=0;whiteSpace=wrap;html=1;movable=1;resizable=1;rotatable=1;deletable=1;editable=1;locked=0;connectable=1;fillColor=#e1d5e7;strokeColor=#9673a6;" vertex="1" parent="1">
          <mxGeometry x="680" y="160" width="480" height="360" as="geometry" />
        </mxCell>
        <mxCell id="XkdaNtyK5-QFKf3fs0a6-19" value="Fächer" style="rounded=0;whiteSpace=wrap;html=1;fillColor=#e1d5e7;strokeColor=#9673a6;" vertex="1" parent="1">
          <mxGeometry x="870" y="270" width="100" height="160" as="geometry" />
        </mxCell>
        <mxCell id="XkdaNtyK5-QFKf3fs0a6-20" value="Zurück" style="rounded=0;whiteSpace=wrap;html=1;fillColor=#f8cecc;strokeColor=#b85450;" vertex="1" parent="1">
          <mxGeometry x="700" y="170" width="70" height="60" as="geometry" />
        </mxCell>
        <mxCell id="XkdaNtyK5-QFKf3fs0a6-25" style="edgeStyle=orthogonalEdgeStyle;rounded=0;orthogonalLoop=1;jettySize=auto;html=1;entryX=0;entryY=0.5;entryDx=0;entryDy=0;" edge="1" parent="1" source="XkdaNtyK5-QFKf3fs0a6-21" target="XkdaNtyK5-QFKf3fs0a6-10">
          <mxGeometry relative="1" as="geometry" />
        </mxCell>
        <mxCell id="XkdaNtyK5-QFKf3fs0a6-21" value="start" style="rounded=0;whiteSpace=wrap;html=1;fillColor=#dae8fc;strokeColor=#6c8ebf;" vertex="1" parent="1">
          <mxGeometry x="885" y="450" width="70" height="60" as="geometry" />
        </mxCell>
        <mxCell id="XkdaNtyK5-QFKf3fs0a6-23" style="edgeStyle=orthogonalEdgeStyle;rounded=0;orthogonalLoop=1;jettySize=auto;html=1;entryX=1.002;entryY=0.111;entryDx=0;entryDy=0;entryPerimeter=0;" edge="1" parent="1" source="XkdaNtyK5-QFKf3fs0a6-20" target="XkdaNtyK5-QFKf3fs0a6-1">
          <mxGeometry relative="1" as="geometry" />
        </mxCell>
        <mxCell id="XkdaNtyK5-QFKf3fs0a6-24" style="edgeStyle=orthogonalEdgeStyle;rounded=0;orthogonalLoop=1;jettySize=auto;html=1;entryX=0;entryY=0.5;entryDx=0;entryDy=0;" edge="1" parent="1" source="XkdaNtyK5-QFKf3fs0a6-2" target="XkdaNtyK5-QFKf3fs0a6-19">
          <mxGeometry relative="1" as="geometry" />
        </mxCell>
        <mxCell id="XkdaNtyK5-QFKf3fs0a6-26" value="Frage 1" style="rounded=0;whiteSpace=wrap;html=1;fillColor=#f8cecc;strokeColor=#b85450;" vertex="1" parent="1">
          <mxGeometry x="1320" y="160" width="100" height="40" as="geometry" />
        </mxCell>
        <mxCell id="XkdaNtyK5-QFKf3fs0a6-27" value="Frage 3" style="rounded=0;whiteSpace=wrap;html=1;fillColor=#fff2cc;strokeColor=#d6b656;" vertex="1" parent="1">
          <mxGeometry x="1320" y="240" width="100" height="40" as="geometry" />
        </mxCell>
        <mxCell id="XkdaNtyK5-QFKf3fs0a6-31" value="Frage 2" style="rounded=0;whiteSpace=wrap;html=1;fillColor=#d5e8d4;strokeColor=#82b366;" vertex="1" parent="1">
          <mxGeometry x="1320" y="200" width="100" height="40" as="geometry" />
        </mxCell>
        <mxCell id="XkdaNtyK5-QFKf3fs0a6-34" style="edgeStyle=orthogonalEdgeStyle;rounded=0;orthogonalLoop=1;jettySize=auto;html=1;" edge="1" parent="1" source="XkdaNtyK5-QFKf3fs0a6-33">
          <mxGeometry relative="1" as="geometry">
            <mxPoint x="920" y="270" as="targetPoint" />
            <Array as="points">
              <mxPoint x="1560" y="140" />
              <mxPoint x="921" y="140" />
            </Array>
          </mxGeometry>
        </mxCell>
        <mxCell id="XkdaNtyK5-QFKf3fs0a6-33" value="Fach auswählen" style="rounded=0;whiteSpace=wrap;html=1;fillColor=#e1d5e7;strokeColor=#9673a6;" vertex="1" parent="1">
          <mxGeometry x="1500" y="160" width="120" height="60" as="geometry" />
        </mxCell>
        <mxCell id="XkdaNtyK5-QFKf3fs0a6-36" style="edgeStyle=orthogonalEdgeStyle;rounded=0;orthogonalLoop=1;jettySize=auto;html=1;entryX=0.5;entryY=0;entryDx=0;entryDy=0;" edge="1" parent="1" source="XkdaNtyK5-QFKf3fs0a6-35" target="XkdaNtyK5-QFKf3fs0a6-1">
          <mxGeometry relative="1" as="geometry">
            <Array as="points">
              <mxPoint x="1740" y="110" />
              <mxPoint x="320" y="110" />
            </Array>
          </mxGeometry>
        </mxCell>
        <mxCell id="XkdaNtyK5-QFKf3fs0a6-35" value="Zur Startseite" style="rounded=0;whiteSpace=wrap;html=1;fillColor=#f8cecc;strokeColor=#b85450;" vertex="1" parent="1">
          <mxGeometry x="1680" y="160" width="120" height="60" as="geometry" />
        </mxCell>
        <mxCell id="XkdaNtyK5-QFKf3fs0a6-47" style="edgeStyle=orthogonalEdgeStyle;rounded=0;orthogonalLoop=1;jettySize=auto;html=1;entryX=0;entryY=0.5;entryDx=0;entryDy=0;" edge="1" parent="1" source="XkdaNtyK5-QFKf3fs0a6-38" target="XkdaNtyK5-QFKf3fs0a6-39">
          <mxGeometry relative="1" as="geometry" />
        </mxCell>
        <mxCell id="XkdaNtyK5-QFKf3fs0a6-48" style="edgeStyle=orthogonalEdgeStyle;rounded=0;orthogonalLoop=1;jettySize=auto;html=1;entryX=0;entryY=0.5;entryDx=0;entryDy=0;" edge="1" parent="1" source="XkdaNtyK5-QFKf3fs0a6-38" target="XkdaNtyK5-QFKf3fs0a6-40">
          <mxGeometry relative="1" as="geometry" />
        </mxCell>
        <mxCell id="XkdaNtyK5-QFKf3fs0a6-64" style="edgeStyle=orthogonalEdgeStyle;rounded=0;orthogonalLoop=1;jettySize=auto;html=1;" edge="1" parent="1" source="XkdaNtyK5-QFKf3fs0a6-38" target="XkdaNtyK5-QFKf3fs0a6-63">
          <mxGeometry relative="1" as="geometry">
            <Array as="points">
              <mxPoint x="150" y="840" />
              <mxPoint x="480" y="840" />
            </Array>
          </mxGeometry>
        </mxCell>
        <mxCell id="XkdaNtyK5-QFKf3fs0a6-103" style="edgeStyle=none;shape=connector;rounded=0;orthogonalLoop=1;jettySize=auto;html=1;entryX=0.5;entryY=0;entryDx=0;entryDy=0;strokeColor=default;align=center;verticalAlign=middle;fontFamily=Helvetica;fontSize=11;fontColor=default;labelBackgroundColor=default;endArrow=none;endFill=0;" edge="1" parent="1" source="XkdaNtyK5-QFKf3fs0a6-38" target="XkdaNtyK5-QFKf3fs0a6-51">
          <mxGeometry relative="1" as="geometry" />
        </mxCell>
        <mxCell id="XkdaNtyK5-QFKf3fs0a6-38" value="Fach auswahl" style="rounded=0;whiteSpace=wrap;html=1;fillColor=#e1d5e7;strokeColor=#9673a6;" vertex="1" parent="1">
          <mxGeometry x="90" y="740" width="120" height="90" as="geometry" />
        </mxCell>
        <mxCell id="XkdaNtyK5-QFKf3fs0a6-50" style="edgeStyle=orthogonalEdgeStyle;rounded=0;orthogonalLoop=1;jettySize=auto;html=1;entryX=0;entryY=0.5;entryDx=0;entryDy=0;" edge="1" parent="1" source="XkdaNtyK5-QFKf3fs0a6-39" target="XkdaNtyK5-QFKf3fs0a6-41">
          <mxGeometry relative="1" as="geometry" />
        </mxCell>
        <mxCell id="XkdaNtyK5-QFKf3fs0a6-39" value="Frage" style="rounded=0;whiteSpace=wrap;html=1;fillColor=#d5e8d4;strokeColor=#82b366;" vertex="1" parent="1">
          <mxGeometry x="250" y="740" width="100" height="40" as="geometry" />
        </mxCell>
        <mxCell id="XkdaNtyK5-QFKf3fs0a6-49" style="edgeStyle=orthogonalEdgeStyle;rounded=0;orthogonalLoop=1;jettySize=auto;html=1;entryX=0;entryY=0.5;entryDx=0;entryDy=0;" edge="1" parent="1" source="XkdaNtyK5-QFKf3fs0a6-40" target="XkdaNtyK5-QFKf3fs0a6-41">
          <mxGeometry relative="1" as="geometry" />
        </mxCell>
        <mxCell id="XkdaNtyK5-QFKf3fs0a6-40" value="Antwort" style="rounded=0;whiteSpace=wrap;html=1;fillColor=#d5e8d4;strokeColor=#82b366;" vertex="1" parent="1">
          <mxGeometry x="250" y="790" width="100" height="40" as="geometry" />
        </mxCell>
        <mxCell id="XkdaNtyK5-QFKf3fs0a6-41" value="Speichern (INSERT)" style="rounded=0;whiteSpace=wrap;html=1;fillColor=#d5e8d4;strokeColor=#82b366;" vertex="1" parent="1">
          <mxGeometry x="430" y="740" width="100" height="40" as="geometry" />
        </mxCell>
        <mxCell id="XkdaNtyK5-QFKf3fs0a6-46" value="" style="edgeStyle=orthogonalEdgeStyle;rounded=0;orthogonalLoop=1;jettySize=auto;html=1;" edge="1" parent="1" source="XkdaNtyK5-QFKf3fs0a6-43" target="XkdaNtyK5-QFKf3fs0a6-44">
          <mxGeometry relative="1" as="geometry" />
        </mxCell>
        <mxCell id="XkdaNtyK5-QFKf3fs0a6-43" value="Fach hinzufügen" style="rounded=0;whiteSpace=wrap;html=1;fillColor=#e1d5e7;strokeColor=#9673a6;" vertex="1" parent="1">
          <mxGeometry x="90" y="690" width="120" height="40" as="geometry" />
        </mxCell>
        <mxCell id="XkdaNtyK5-QFKf3fs0a6-44" value="Speichern" style="rounded=0;whiteSpace=wrap;html=1;fillColor=#d5e8d4;strokeColor=#82b366;" vertex="1" parent="1">
          <mxGeometry x="250" y="690" width="100" height="40" as="geometry" />
        </mxCell>
        <mxCell id="XkdaNtyK5-QFKf3fs0a6-55" style="edgeStyle=orthogonalEdgeStyle;rounded=0;orthogonalLoop=1;jettySize=auto;html=1;entryX=0;entryY=0.5;entryDx=0;entryDy=0;" edge="1" parent="1" source="XkdaNtyK5-QFKf3fs0a6-51" target="XkdaNtyK5-QFKf3fs0a6-52">
          <mxGeometry relative="1" as="geometry" />
        </mxCell>
        <mxCell id="XkdaNtyK5-QFKf3fs0a6-56" style="edgeStyle=orthogonalEdgeStyle;rounded=0;orthogonalLoop=1;jettySize=auto;html=1;" edge="1" parent="1" source="XkdaNtyK5-QFKf3fs0a6-51" target="XkdaNtyK5-QFKf3fs0a6-53">
          <mxGeometry relative="1" as="geometry" />
        </mxCell>
        <mxCell id="XkdaNtyK5-QFKf3fs0a6-62" style="edgeStyle=orthogonalEdgeStyle;rounded=0;orthogonalLoop=1;jettySize=auto;html=1;entryX=0;entryY=0.5;entryDx=0;entryDy=0;" edge="1" parent="1" source="XkdaNtyK5-QFKf3fs0a6-51" target="XkdaNtyK5-QFKf3fs0a6-61">
          <mxGeometry relative="1" as="geometry">
            <Array as="points">
              <mxPoint x="270" y="1000" />
              <mxPoint x="270" y="1000" />
            </Array>
          </mxGeometry>
        </mxCell>
        <mxCell id="XkdaNtyK5-QFKf3fs0a6-51" value="Fragen (auswählen)" style="rounded=0;whiteSpace=wrap;html=1;fillColor=#dae8fc;strokeColor=#6c8ebf;" vertex="1" parent="1">
          <mxGeometry x="90" y="850" width="120" height="170" as="geometry" />
        </mxCell>
        <mxCell id="XkdaNtyK5-QFKf3fs0a6-57" style="edgeStyle=orthogonalEdgeStyle;rounded=0;orthogonalLoop=1;jettySize=auto;html=1;entryX=0;entryY=0.5;entryDx=0;entryDy=0;" edge="1" parent="1" source="XkdaNtyK5-QFKf3fs0a6-52" target="XkdaNtyK5-QFKf3fs0a6-54">
          <mxGeometry relative="1" as="geometry" />
        </mxCell>
        <mxCell id="XkdaNtyK5-QFKf3fs0a6-52" value="Frage" style="rounded=0;whiteSpace=wrap;html=1;fillColor=#d5e8d4;strokeColor=#82b366;" vertex="1" parent="1">
          <mxGeometry x="250" y="890" width="100" height="40" as="geometry" />
        </mxCell>
        <mxCell id="XkdaNtyK5-QFKf3fs0a6-58" style="edgeStyle=orthogonalEdgeStyle;rounded=0;orthogonalLoop=1;jettySize=auto;html=1;entryX=0;entryY=0.5;entryDx=0;entryDy=0;" edge="1" parent="1" source="XkdaNtyK5-QFKf3fs0a6-53" target="XkdaNtyK5-QFKf3fs0a6-54">
          <mxGeometry relative="1" as="geometry" />
        </mxCell>
        <mxCell id="XkdaNtyK5-QFKf3fs0a6-53" value="Antwort" style="rounded=0;whiteSpace=wrap;html=1;fillColor=#d5e8d4;strokeColor=#82b366;" vertex="1" parent="1">
          <mxGeometry x="250" y="950" width="100" height="40" as="geometry" />
        </mxCell>
        <mxCell id="XkdaNtyK5-QFKf3fs0a6-54" value="Speichern (UPDATE)" style="rounded=0;whiteSpace=wrap;html=1;fillColor=#d5e8d4;strokeColor=#82b366;" vertex="1" parent="1">
          <mxGeometry x="430" y="920" width="100" height="40" as="geometry" />
        </mxCell>
        <mxCell id="XkdaNtyK5-QFKf3fs0a6-61" value="Löschen" style="rounded=0;whiteSpace=wrap;html=1;fillColor=#f8cecc;strokeColor=#b85450;" vertex="1" parent="1">
          <mxGeometry x="430" y="980" width="100" height="40" as="geometry" />
        </mxCell>
        <mxCell id="XkdaNtyK5-QFKf3fs0a6-63" value="Löschen" style="rounded=0;whiteSpace=wrap;html=1;fillColor=#f8cecc;strokeColor=#b85450;" vertex="1" parent="1">
          <mxGeometry x="430" y="790" width="100" height="40" as="geometry" />
        </mxCell>
        <mxCell id="XkdaNtyK5-QFKf3fs0a6-65" value="" style="rounded=0;whiteSpace=wrap;html=1;movable=1;resizable=1;rotatable=1;deletable=1;editable=1;locked=0;connectable=1;" vertex="1" parent="1">
          <mxGeometry x="680" y="680" width="480" height="360" as="geometry" />
        </mxCell>
        <mxCell id="XkdaNtyK5-QFKf3fs0a6-66" value="Actor" style="shape=umlActor;verticalLabelPosition=bottom;verticalAlign=top;html=1;outlineConnect=0;" vertex="1" parent="1">
          <mxGeometry x="693" y="790" width="30" height="60" as="geometry" />
        </mxCell>
        <mxCell id="XkdaNtyK5-QFKf3fs0a6-67" value="" style="rounded=0;whiteSpace=wrap;html=1;movable=1;resizable=1;rotatable=1;deletable=1;editable=1;locked=0;connectable=1;" vertex="1" parent="1">
          <mxGeometry x="773" y="720" width="347" height="280" as="geometry" />
        </mxCell>
        <mxCell id="XkdaNtyK5-QFKf3fs0a6-72" style="edgeStyle=none;shape=connector;rounded=0;orthogonalLoop=1;jettySize=auto;html=1;entryX=0;entryY=0.5;entryDx=0;entryDy=0;strokeColor=default;align=center;verticalAlign=middle;fontFamily=Helvetica;fontSize=11;fontColor=default;labelBackgroundColor=default;endArrow=none;endFill=0;" edge="1" parent="1" source="XkdaNtyK5-QFKf3fs0a6-68" target="XkdaNtyK5-QFKf3fs0a6-70">
          <mxGeometry relative="1" as="geometry" />
        </mxCell>
        <mxCell id="XkdaNtyK5-QFKf3fs0a6-68" value="Fach auswählen" style="ellipse;whiteSpace=wrap;html=1;" vertex="1" parent="1">
          <mxGeometry x="803" y="740" width="110" height="40" as="geometry" />
        </mxCell>
        <mxCell id="XkdaNtyK5-QFKf3fs0a6-69" value="Fach (CRUD)" style="ellipse;whiteSpace=wrap;html=1;" vertex="1" parent="1">
          <mxGeometry x="803" y="870" width="110" height="40" as="geometry" />
        </mxCell>
        <mxCell id="XkdaNtyK5-QFKf3fs0a6-70" value="Fragen / Antworten&lt;br&gt;einsehen" style="ellipse;whiteSpace=wrap;html=1;" vertex="1" parent="1">
          <mxGeometry x="943" y="735" width="120" height="50" as="geometry" />
        </mxCell>
        <mxCell id="XkdaNtyK5-QFKf3fs0a6-71" style="rounded=0;orthogonalLoop=1;jettySize=auto;html=1;entryX=0;entryY=0.5;entryDx=0;entryDy=0;endArrow=none;endFill=0;" edge="1" parent="1" source="XkdaNtyK5-QFKf3fs0a6-66" target="XkdaNtyK5-QFKf3fs0a6-68">
          <mxGeometry relative="1" as="geometry" />
        </mxCell>
        <mxCell id="XkdaNtyK5-QFKf3fs0a6-73" style="edgeStyle=none;shape=connector;rounded=0;orthogonalLoop=1;jettySize=auto;html=1;entryX=0;entryY=0;entryDx=0;entryDy=0;strokeColor=default;align=center;verticalAlign=middle;fontFamily=Helvetica;fontSize=11;fontColor=default;labelBackgroundColor=default;endArrow=none;endFill=0;" edge="1" parent="1" source="XkdaNtyK5-QFKf3fs0a6-66" target="XkdaNtyK5-QFKf3fs0a6-69">
          <mxGeometry relative="1" as="geometry" />
        </mxCell>
        <mxCell id="XkdaNtyK5-QFKf3fs0a6-74" value="subject" style="shape=table;startSize=30;container=1;collapsible=1;childLayout=tableLayout;fixedRows=1;rowLines=0;fontStyle=1;align=center;resizeLast=1;html=1;fontFamily=Helvetica;fontSize=11;fontColor=default;labelBackgroundColor=default;" vertex="1" parent="1">
          <mxGeometry x="1320" y="680" width="180" height="90" as="geometry" />
        </mxCell>
        <mxCell id="XkdaNtyK5-QFKf3fs0a6-75" value="" style="shape=tableRow;horizontal=0;startSize=0;swimlaneHead=0;swimlaneBody=0;fillColor=none;collapsible=0;dropTarget=0;points=[[0,0.5],[1,0.5]];portConstraint=eastwest;top=0;left=0;right=0;bottom=1;fontFamily=Helvetica;fontSize=11;fontColor=default;labelBackgroundColor=default;" vertex="1" parent="XkdaNtyK5-QFKf3fs0a6-74">
          <mxGeometry y="30" width="180" height="30" as="geometry" />
        </mxCell>
        <mxCell id="XkdaNtyK5-QFKf3fs0a6-76" value="PK" style="shape=partialRectangle;connectable=0;fillColor=none;top=0;left=0;bottom=0;right=0;fontStyle=1;overflow=hidden;whiteSpace=wrap;html=1;fontFamily=Helvetica;fontSize=11;fontColor=default;labelBackgroundColor=default;" vertex="1" parent="XkdaNtyK5-QFKf3fs0a6-75">
          <mxGeometry width="30" height="30" as="geometry">
            <mxRectangle width="30" height="30" as="alternateBounds" />
          </mxGeometry>
        </mxCell>
        <mxCell id="XkdaNtyK5-QFKf3fs0a6-77" value="id" style="shape=partialRectangle;connectable=0;fillColor=none;top=0;left=0;bottom=0;right=0;align=left;spacingLeft=6;fontStyle=5;overflow=hidden;whiteSpace=wrap;html=1;fontFamily=Helvetica;fontSize=11;fontColor=default;labelBackgroundColor=default;" vertex="1" parent="XkdaNtyK5-QFKf3fs0a6-75">
          <mxGeometry x="30" width="150" height="30" as="geometry">
            <mxRectangle width="150" height="30" as="alternateBounds" />
          </mxGeometry>
        </mxCell>
        <mxCell id="XkdaNtyK5-QFKf3fs0a6-78" value="" style="shape=tableRow;horizontal=0;startSize=0;swimlaneHead=0;swimlaneBody=0;fillColor=none;collapsible=0;dropTarget=0;points=[[0,0.5],[1,0.5]];portConstraint=eastwest;top=0;left=0;right=0;bottom=0;fontFamily=Helvetica;fontSize=11;fontColor=default;labelBackgroundColor=default;" vertex="1" parent="XkdaNtyK5-QFKf3fs0a6-74">
          <mxGeometry y="60" width="180" height="30" as="geometry" />
        </mxCell>
        <mxCell id="XkdaNtyK5-QFKf3fs0a6-79" value="" style="shape=partialRectangle;connectable=0;fillColor=none;top=0;left=0;bottom=0;right=0;editable=1;overflow=hidden;whiteSpace=wrap;html=1;fontFamily=Helvetica;fontSize=11;fontColor=default;labelBackgroundColor=default;" vertex="1" parent="XkdaNtyK5-QFKf3fs0a6-78">
          <mxGeometry width="30" height="30" as="geometry">
            <mxRectangle width="30" height="30" as="alternateBounds" />
          </mxGeometry>
        </mxCell>
        <mxCell id="XkdaNtyK5-QFKf3fs0a6-80" value="name" style="shape=partialRectangle;connectable=0;fillColor=none;top=0;left=0;bottom=0;right=0;align=left;spacingLeft=6;overflow=hidden;whiteSpace=wrap;html=1;fontFamily=Helvetica;fontSize=11;fontColor=default;labelBackgroundColor=default;" vertex="1" parent="XkdaNtyK5-QFKf3fs0a6-78">
          <mxGeometry x="30" width="150" height="30" as="geometry">
            <mxRectangle width="150" height="30" as="alternateBounds" />
          </mxGeometry>
        </mxCell>
        <mxCell id="XkdaNtyK5-QFKf3fs0a6-87" value="task" style="shape=table;startSize=30;container=1;collapsible=1;childLayout=tableLayout;fixedRows=1;rowLines=0;fontStyle=1;align=center;resizeLast=1;html=1;fontFamily=Helvetica;fontSize=11;fontColor=default;labelBackgroundColor=default;" vertex="1" parent="1">
          <mxGeometry x="1620" y="680" width="180" height="150" as="geometry" />
        </mxCell>
        <mxCell id="XkdaNtyK5-QFKf3fs0a6-88" value="" style="shape=tableRow;horizontal=0;startSize=0;swimlaneHead=0;swimlaneBody=0;fillColor=none;collapsible=0;dropTarget=0;points=[[0,0.5],[1,0.5]];portConstraint=eastwest;top=0;left=0;right=0;bottom=1;fontFamily=Helvetica;fontSize=11;fontColor=default;labelBackgroundColor=default;" vertex="1" parent="XkdaNtyK5-QFKf3fs0a6-87">
          <mxGeometry y="30" width="180" height="30" as="geometry" />
        </mxCell>
        <mxCell id="XkdaNtyK5-QFKf3fs0a6-89" value="PK" style="shape=partialRectangle;connectable=0;fillColor=none;top=0;left=0;bottom=0;right=0;fontStyle=1;overflow=hidden;whiteSpace=wrap;html=1;fontFamily=Helvetica;fontSize=11;fontColor=default;labelBackgroundColor=default;" vertex="1" parent="XkdaNtyK5-QFKf3fs0a6-88">
          <mxGeometry width="30" height="30" as="geometry">
            <mxRectangle width="30" height="30" as="alternateBounds" />
          </mxGeometry>
        </mxCell>
        <mxCell id="XkdaNtyK5-QFKf3fs0a6-90" value="id" style="shape=partialRectangle;connectable=0;fillColor=none;top=0;left=0;bottom=0;right=0;align=left;spacingLeft=6;fontStyle=5;overflow=hidden;whiteSpace=wrap;html=1;fontFamily=Helvetica;fontSize=11;fontColor=default;labelBackgroundColor=default;" vertex="1" parent="XkdaNtyK5-QFKf3fs0a6-88">
          <mxGeometry x="30" width="150" height="30" as="geometry">
            <mxRectangle width="150" height="30" as="alternateBounds" />
          </mxGeometry>
        </mxCell>
        <mxCell id="XkdaNtyK5-QFKf3fs0a6-91" value="" style="shape=tableRow;horizontal=0;startSize=0;swimlaneHead=0;swimlaneBody=0;fillColor=none;collapsible=0;dropTarget=0;points=[[0,0.5],[1,0.5]];portConstraint=eastwest;top=0;left=0;right=0;bottom=0;fontFamily=Helvetica;fontSize=11;fontColor=default;labelBackgroundColor=default;" vertex="1" parent="XkdaNtyK5-QFKf3fs0a6-87">
          <mxGeometry y="60" width="180" height="30" as="geometry" />
        </mxCell>
        <mxCell id="XkdaNtyK5-QFKf3fs0a6-92" value="" style="shape=partialRectangle;connectable=0;fillColor=none;top=0;left=0;bottom=0;right=0;editable=1;overflow=hidden;whiteSpace=wrap;html=1;fontFamily=Helvetica;fontSize=11;fontColor=default;labelBackgroundColor=default;" vertex="1" parent="XkdaNtyK5-QFKf3fs0a6-91">
          <mxGeometry width="30" height="30" as="geometry">
            <mxRectangle width="30" height="30" as="alternateBounds" />
          </mxGeometry>
        </mxCell>
        <mxCell id="XkdaNtyK5-QFKf3fs0a6-93" value="question" style="shape=partialRectangle;connectable=0;fillColor=none;top=0;left=0;bottom=0;right=0;align=left;spacingLeft=6;overflow=hidden;whiteSpace=wrap;html=1;fontFamily=Helvetica;fontSize=11;fontColor=default;labelBackgroundColor=default;" vertex="1" parent="XkdaNtyK5-QFKf3fs0a6-91">
          <mxGeometry x="30" width="150" height="30" as="geometry">
            <mxRectangle width="150" height="30" as="alternateBounds" />
          </mxGeometry>
        </mxCell>
        <mxCell id="XkdaNtyK5-QFKf3fs0a6-94" style="shape=tableRow;horizontal=0;startSize=0;swimlaneHead=0;swimlaneBody=0;fillColor=none;collapsible=0;dropTarget=0;points=[[0,0.5],[1,0.5]];portConstraint=eastwest;top=0;left=0;right=0;bottom=0;fontFamily=Helvetica;fontSize=11;fontColor=default;labelBackgroundColor=default;" vertex="1" parent="XkdaNtyK5-QFKf3fs0a6-87">
          <mxGeometry y="90" width="180" height="30" as="geometry" />
        </mxCell>
        <mxCell id="XkdaNtyK5-QFKf3fs0a6-95" style="shape=partialRectangle;connectable=0;fillColor=none;top=0;left=0;bottom=0;right=0;editable=1;overflow=hidden;whiteSpace=wrap;html=1;fontFamily=Helvetica;fontSize=11;fontColor=default;labelBackgroundColor=default;" vertex="1" parent="XkdaNtyK5-QFKf3fs0a6-94">
          <mxGeometry width="30" height="30" as="geometry">
            <mxRectangle width="30" height="30" as="alternateBounds" />
          </mxGeometry>
        </mxCell>
        <mxCell id="XkdaNtyK5-QFKf3fs0a6-96" value="answer" style="shape=partialRectangle;connectable=0;fillColor=none;top=0;left=0;bottom=0;right=0;align=left;spacingLeft=6;overflow=hidden;whiteSpace=wrap;html=1;fontFamily=Helvetica;fontSize=11;fontColor=default;labelBackgroundColor=default;" vertex="1" parent="XkdaNtyK5-QFKf3fs0a6-94">
          <mxGeometry x="30" width="150" height="30" as="geometry">
            <mxRectangle width="150" height="30" as="alternateBounds" />
          </mxGeometry>
        </mxCell>
        <mxCell id="XkdaNtyK5-QFKf3fs0a6-97" style="shape=tableRow;horizontal=0;startSize=0;swimlaneHead=0;swimlaneBody=0;fillColor=none;collapsible=0;dropTarget=0;points=[[0,0.5],[1,0.5]];portConstraint=eastwest;top=0;left=0;right=0;bottom=0;fontFamily=Helvetica;fontSize=11;fontColor=default;labelBackgroundColor=default;" vertex="1" parent="XkdaNtyK5-QFKf3fs0a6-87">
          <mxGeometry y="120" width="180" height="30" as="geometry" />
        </mxCell>
        <mxCell id="XkdaNtyK5-QFKf3fs0a6-98" value="FK" style="shape=partialRectangle;connectable=0;fillColor=none;top=0;left=0;bottom=0;right=0;editable=1;overflow=hidden;whiteSpace=wrap;html=1;fontFamily=Helvetica;fontSize=11;fontColor=default;labelBackgroundColor=default;" vertex="1" parent="XkdaNtyK5-QFKf3fs0a6-97">
          <mxGeometry width="30" height="30" as="geometry">
            <mxRectangle width="30" height="30" as="alternateBounds" />
          </mxGeometry>
        </mxCell>
        <mxCell id="XkdaNtyK5-QFKf3fs0a6-99" value="subjectID" style="shape=partialRectangle;connectable=0;fillColor=none;top=0;left=0;bottom=0;right=0;align=left;spacingLeft=6;overflow=hidden;whiteSpace=wrap;html=1;fontFamily=Helvetica;fontSize=11;fontColor=default;labelBackgroundColor=default;" vertex="1" parent="XkdaNtyK5-QFKf3fs0a6-97">
          <mxGeometry x="30" width="150" height="30" as="geometry">
            <mxRectangle width="150" height="30" as="alternateBounds" />
          </mxGeometry>
        </mxCell>
        <mxCell id="XkdaNtyK5-QFKf3fs0a6-100" style="edgeStyle=orthogonalEdgeStyle;shape=connector;rounded=0;orthogonalLoop=1;jettySize=auto;html=1;entryX=0;entryY=0.5;entryDx=0;entryDy=0;strokeColor=default;align=center;verticalAlign=middle;fontFamily=Helvetica;fontSize=11;fontColor=default;labelBackgroundColor=default;endArrow=none;endFill=0;" edge="1" parent="1" source="XkdaNtyK5-QFKf3fs0a6-75" target="XkdaNtyK5-QFKf3fs0a6-97">
          <mxGeometry relative="1" as="geometry" />
        </mxCell>
        <mxCell id="XkdaNtyK5-QFKf3fs0a6-101" value="1" style="text;html=1;align=center;verticalAlign=middle;resizable=0;points=[];autosize=1;strokeColor=none;fillColor=none;fontFamily=Helvetica;fontSize=11;fontColor=default;labelBackgroundColor=default;" vertex="1" parent="1">
          <mxGeometry x="1495" y="698" width="30" height="30" as="geometry" />
        </mxCell>
        <mxCell id="XkdaNtyK5-QFKf3fs0a6-102" value="n" style="text;html=1;align=center;verticalAlign=middle;resizable=0;points=[];autosize=1;strokeColor=none;fillColor=none;fontFamily=Helvetica;fontSize=11;fontColor=default;labelBackgroundColor=default;" vertex="1" parent="1">
          <mxGeometry x="1590" y="790" width="30" height="30" as="geometry" />
        </mxCell>
      </root>
    </mxGraphModel>
  </diagram>
</mxfile>
